<svg width="256" height="194" xmlns="http://www.w3.org/2000/svg" preserveAspectRatio="xMidYMid"><defs><linearGradient x1=".00388991%" y1="49.997619%" x2="100.032232%" y2="49.997619%" id="a"><stop stop-opacity=".1" offset="0%"/><stop stop-opacity=".2" offset="100%"/></linearGradient></defs><path d="M238.833923 193.595007H16.1542195c-8.63451906 0-15.90569305-7.04395-15.90569305-15.905693V16.8145898c0-8.63451907 7.0439498-15.90569305 15.90569305-15.90569305H238.833923c8.634519 0 15.905693 7.04394979 15.905693 15.90569305V177.689314c0 8.861743-7.04395 15.905693-15.905693 15.905693z" fill="#E3E3E3"/><path d="M32.0599126 193.595007l95.2069344-76.574551.681673-4.090035-98.1608492-70.6667222-.2272242 147.9229452 2.499466 3.408363z" opacity=".1" fill="#231F20"/><path d="M16.1542195 193.595007c-8.86174325 0-15.90569305-7.04395-15.90569305-15.905693V16.5873656c0-8.86174324 7.0439498-10.45231255 15.90569305-10.45231255 8.8617433 0 15.9056931 1.81779349 15.9056931 10.45231255V193.595007H16.1542195z" fill="#D54B3D"/><path d="M16.1542195 8.40729492c11.3612094 0 13.6334513 3.40836278 13.6334513 8.18007068V191.322765H16.1542195c-7.49839813 0-13.63345118-6.135053-13.63345118-13.633451V16.5873656c0-4.9989321 2.27224187-8.18007068 13.63345118-8.18007068zm0-2.27224187c-8.86174325 0-15.90569305 1.81779349-15.90569305 10.45231255V177.689314c0 8.861743 7.0439498 15.905693 15.90569305 15.905693h15.9056931V16.5873656c0-8.86174324-7.0439498-10.45231255-15.9056931-10.45231255z" fill="#D72B27"/><path d="M238.833923 193.595007H222.92823V16.1329173c0-8.86174332 7.043949-9.99786425 15.905693-9.99786425 8.861743 0 15.905693 1.13612093 15.905693 9.99786425V177.916538c0 8.634519-7.04395 15.678469-15.905693 15.678469z" fill="#D54B3D"/><path d="M238.833923 8.40729492c10.225088 0 13.633451 2.04501768 13.633451 7.72562238V177.916538c0 7.498399-6.135053 13.633452-13.633451 13.633452h-13.633451V16.1329173c0-5.9078289 3.408362-7.72562238 13.633451-7.72562238zm0-2.27224187c-8.861744 0-15.905693 1.13612093-15.905693 9.99786425V193.822231h15.905693c8.861743 0 15.905693-7.043949 15.905693-15.905693V16.1329173c0-8.86174332-7.04395-9.99786425-15.905693-9.99786425z" fill="#D72B27"/><path d="M170.666667 193.595007L1.57979906 23.1947544l8.89381584 3.6176997L128.175744 111.567076 254.73962 18.7604631l-.000004 159.1560749c0 8.634519-7.04395 15.678469-15.905693 15.678469h-68.167256z" fill="url(#a)"/><path d="M127.266847 117.020456L7.06525206 29.7663685C.02130226 24.5402122-2.02371542 14.542348 3.20244088 7.49839817c5.2261563-7.0439498 15.45124472-8.6345191 22.72241872-3.4083628L127.494071 77.9378961 229.744955 3.18113862c7.04395-5.2261563 17.041814-3.635587 22.267971 3.63558699 5.226156 7.04394979 3.635587 17.04181399-3.635587 22.26797029L127.266847 117.020456z" fill="#D54B3D"/><path d="M238.833923 2.27224187c4.317259 0 8.407295 2.04501768 11.133985 5.68060467 4.317259 6.13505306 2.953914 14.54234796-2.953915 19.08683166L127.266847 114.293766 8.42859718 27.948575C2.29354414 23.4040913.70297483 14.7695722 5.02023438 8.86174329 7.51970044 5.45338049 11.83696 3.18113862 16.3814437 3.18113862c2.9539145 0 5.9078289.90889675 8.1800708 2.72669024L125.903502 79.5284654l1.363345.9088968 1.363345-.9088968 102.02366-74.75675747c2.499466-1.59056931 5.226156-2.49946606 8.180071-2.49946606zm0-2.27224187c-3.181139 0-6.589502.90889675-9.316192 2.95391443L127.266847 77.7106719 25.6976354 3.86281118C22.9709451 1.8177935 19.5625823.90889675 16.1542195.90889675c-4.9989321 0-9.99786418 2.27224187-13.1790028 6.58950142C-2.02371542 14.542348.02130227 24.5402122 7.06525206 29.7663685L127.266847 117.24768l120.883267-88.1629841c7.04395-5.2261563 8.63452-14.9967963 3.635587-22.26797029C248.604563 2.27224187 243.832855 0 238.833923 0z" fill="#D72B27"/></svg>
