<svg version="1" xmlns="http://www.w3.org/2000/svg" width="682.667" height="682.667" viewBox="0 0 512.000000 512.000000"><path d="M0 43.6v43.7l7.8-.7c4.2-.4 9.8-.9 12.5-1.2 3-.4 5.3-.2 6.1.6.9.7 4.5 1 9.8.8l8.3-.3.3 2.8c.5 3.9 2.6 2.9 3-1.4.6-5.7 1.6-6.2 11.2-5.6 5.4.3 9.3.1 10.5-.6 1.1-.6 3-1.2 4.3-1.3 1.3-.2 3.9-1.2 5.8-2.3C82.4 76.4 84.8 76 91 76c4.3 0 8.2.4 8.5 1 .3.5 2.6 1 4.9 1 3.6 0 4.5-.4 4.9-2.1.5-1.8 1.3-2 6.4-1.9 10 .1 23.6-1 24.9-2 1.7-1.5 5.4-2.1 5.4-.9 0 1.3 6.4 1.1 9.5-.3 2.3-1 2.8-1 3.6.5 1.2 2 4 2.2 5.7.5.9-.9 1.5-.9 2.4 0 1.7 1.7 14.2 1.6 15.7-.2 1.4-1.6.4-5.7-6-25.1-3.7-11-4.3-12.3-8.2-15.2-3.2-2.4-4.3-2.9-4.5-1.8-.2.8-.8 1.5-1.3 1.5s-1.9 1.1-3.1 2.5c-2.5 2.8-4.3 3.2-5.2 1-.4-1.2-2-1.5-6.3-1.4-5.5.2-7.7-.4-13.3-3.6-2.1-1.2-2.4-2-2.1-5.9.2-4.5.2-4.6-2.7-4.6-2.1 0-3.1.6-3.5 2-.4 1.5-1.4 2-4 2-3 0-3.5-.4-4-2.8-.7-3.7-5.5-4.9-18.4-4.8-9 .1-9.9.3-10.7 2.2-2.4 5.4-12.2 6.7-16.2 2.3-1.3-1.5-3.1-1.9-8.3-1.9-4.8 0-7.5-.5-9.9-2-3.9-2.4-7-2.6-7.9-.4-.7 1.9 1.5 3.6 4 2.8 1.1-.3 1.7 0 1.7.9 0 1.1-1.4 1.6-4.7 1.9-4 .4-5.2.1-7-1.8-1.3-1.3-2.3-2.7-2.3-3.2s-2.7-1.5-6-2.2c-3.3-.7-6.3-1.7-6.6-2.1-.2-.5-1.4.1-2.4 1.1-2.9 2.9-7.1 2.5-10.5-1-1.6-1.7-3.5-3-4.2-3C8.6 9 8 8.6 8 8.1 8 7.2 1.2 0 .4 0 .2 0 0 19.6 0 43.6zm111.6-18.4c1.3 2 1.2 6.7-.1 7.2-1.9.7-2.5-.3-2.5-4.6 0-3.7 1.2-4.9 2.6-2.6zM172.4 1.6c.4.9 1.1 3.6 1.7 6 .6 2.4 1.4 4.4 1.8 4.4.3 0 5.1-1.4 10.6-3.1C192 7.2 200.8 4.6 206 3l9.5-2.9h-21.9c-19.8-.1-21.8.1-21.2 1.5zM312 4.7c-2.5.7-7.2 2.2-10.5 3.3-3.3 1-14.3 4.4-24.5 7.5-10.2 3.1-19.5 6-20.7 6.5-2.3 1-3.3 4.6-1 3.7.6-.2 4.6-1.4 8.7-2.7 27.7-8.3 51.1-15.9 52.4-17 2-1.9-.2-2.6-4.4-1.3zM171 7.5c-.7.9-1.1 1.7-.9 2 .3.2 1-.5 1.7-1.5 1.4-2.4 1-2.6-.8-.5zM394.3 15.7c-1.6.6-1.7 3.3-.3 3.3 1.1 0 2.6-2.8 1.9-3.4-.2-.2-1-.1-1.6.1zM377.2 21.6c-1.2.8-2.2 2-2.2 2.5 0 1.4 3.6-.7 4.4-2.6.7-1.9.6-1.9-2.2.1zM174.6 22.6c-.5 1.4-.4 1.5.9.4 1.7-1.4 1.9-2 .6-2-.5 0-1.2.7-1.5 1.6zM175 25.9c0 .5.7 1.2 1.6 1.5 1.4.5 1.5.4.4-.9-1.4-1.7-2-1.9-2-.6zM358 26.8c-.8.3-2 1.1-2.7 1.8-1.8 1.8 1 2.7 3.2 1 2.1-1.5 1.7-3.5-.5-2.8z"/><path d="M137 29c0 .5.5 1 1 1 .6 0 1-.5 1-1 0-.6-.4-1-1-1-.5 0-1 .4-1 1zM339.1 32.9c-.7.5-1.2 1.4-1 2 .3.6.9.7 1.8.2.7-.5 1.2-1.4 1-2-.3-.6-.9-.7-1.8-.2zM333 35.5c0 .8.5 1.5 1 1.5.6 0 1-.7 1-1.5s-.4-1.5-1-1.5c-.5 0-1 .7-1 1.5zM322.9 38.9c-2.4 2-2.4 2-.2 1.4 1.2-.3 2.8-1.1 3.4-1.9 1.7-2.1-.5-1.7-3.2.5zM313.5 41c-.4.6-1.2.7-1.8.4-.7-.4-.9-.4-.5.1.4.4.3 1.4-.3 2.1-.8.9-.5 1.1 1 .7 1.2-.3 2.1-1 2.1-1.5s.4-.7.8-.4c.5.3.9-.1.9-.9 0-1.7-1.3-2-2.2-.5zM304.7 43.6c-.4.4-.7 1.4-.7 2.3 0 1.1.3 1.2 1.1.4.6-.6 1-1.6.7-2.3-.2-.6-.7-.8-1.1-.4zM297 47c0 .5-.6.7-1.3.4-.8-.3-2 .2-2.7 1.1-.8 1-.9 1.5-.1 1.5.6 0 1.1-.5 1.1-1 0-.6.6-1 1.3-.9 2.3.3 3.7-.1 3.7-1.1 0-.6-.4-1-1-1-.5 0-1 .4-1 1zM271 55.3c2.6 1.4 5 1.2 5-.4 0-.5-1.7-.9-3.7-.9-3.8 0-3.8 0-1.3 1.3zM258.1 59.7c-1.4 1.1-1.4 1.2.4 1.2 1.1 0 3.4-.6 5-1.3l3-1.3-3.4.1c-1.9.1-4.1.6-5 1.3zM250.1 60.9c-.9.6-1 1.1-.2 1.5 1.3.8 3.1-.1 3.1-1.5 0-1.1-1.1-1.1-2.9 0zM240.7 63.7c-1.3 1.3-.7 3.2.8 2.7.8-.4 1.5-1.2 1.5-2 0-1.5-1.2-1.9-2.3-.7zM246.8 63.7c.7.3 1.6.2 1.9-.1.4-.3-.2-.6-1.3-.5-1.1 0-1.4.3-.6.6zM234.7 65.7c-1.3 1.2-.7 2.3 1.3 2.3 1.3 0 1.8-.5 1.4-1.5-.7-1.6-1.7-1.9-2.7-.8zM227.5 68.1c-.4.6-.5 1.3-.2 1.6.7.7 2.7-.6 2.7-1.8 0-1.2-1.7-1.2-2.5.2zM224 70c-.9.6-1 1-.3 1 .6 0 1.5-.5 1.8-1 .8-1.2.4-1.2-1.5 0zM217 72.6c0 .8.5 1.2 1 .9.6-.3 1-1 1-1.6 0-.5-.4-.9-1-.9-.5 0-1 .7-1 1.6zM200 77.5c0 .9.6 1.2 1.5.9.8-.4 1.5-1 1.5-1.5s-.7-.9-1.5-.9-1.5.7-1.5 1.5zM192.7 78.6c-.8.8.1 2.4 1.4 2.4.5 0 .9-.7.9-1.5 0-1.5-1.2-2-2.3-.9zM209 111.1c-27.2 13.8-62.1 31.4-77.5 39.1-15.4 7.7-28.1 14.1-28.2 14.2-.1.1-.4 3.7-.7 8-.3 5-1 8.2-1.8 8.7-.9.6-1 .9-.1.9 1.3 0 1.4 2.9.6 11.2-.5 5.2-1.9 6-4.8 2.8-1-1.1-2.4-2-3.2-2-.7 0-1.3-1-1.3-2.3.1-2 .2-2 1.1-.5 1.4 2.4 2.8 2.3 2.2-.2-.3-1.3-1.4-2-2.9-2-2.9 0-4 1.6-2.3 3.6 1.1 1.3.7 2.7-.9 3-7 1.4-6.9 4.8.1 7.8 5.2 2.1 4.4 4.2-1.4 3.8-2.4-.2-4.5-.5-4.6-.6-.1-.1-.3-1.6-.5-3.4-.2-2.3-.6-3.1-1.8-2.8-.8.3-3 .7-4.8 1.1-3.4.7-3.5 2.5-.1 2.5 2.5 0 2.5 2.7-.1 3.5-3 1-2.4 3.2 1.1 3.9 2.6.5 3 1 2.6 2.8-.4 1.2-.1 2.8.5 3.5.8 1 .7 1.3-.4 1.3-.7 0-2-.9-2.8-2-1.7-2.3-3.5-2.7-2.7-.6.4.9-.3 1.6-1.8 2-1.4.4-2.9 1.5-3.5 2.6-.6 1.1-1.8 2.1-2.8 2.1-.9.1.1.5 2.3.9 4 .9 7.6.4 8.5-1 .8-1.3 6 .1 6 1.6 0 2-2.2 2.9-3.4 1.3-1.6-2-5.3-1.2-6 1.4-.3 1.2-.3 3.9.1 5.9.4 2.5.2 3.8-.6 3.8-.6 0-1.1-.5-1.1-1 0-.6-.8-1-1.7-1-2 0-10.8-3.2-11.9-4.3-.9-.8-4.4-.9-4.4-.1 0 .3 1 1.4 2.3 2.5 2 1.7 2 1.8.3 1.9-1.3 0-1.7.5-1.3 1.9.3 1.4-.2 2.1-2 2.6-1.4.3-3.2 1.3-4 2-.8.8-2.5 1.5-3.8 1.5-4.6 0-9.4 3.1-10.1 6.5-.3 2-1.7 3.9-4 5.4l-3.5 2.4-4.2-4.1c-2.4-2.3-4.8-4.2-5.5-4.2-.7 0-1.2-.4-1.2-1s-.9-.6-2.5 0c-1.4.5-5.2.7-8.5.3l-6-.6V512h512V238.9l-5.7.8c-3.2.4-11.6.8-18.8.8-9.3 0-13.2.4-13.8 1.2-.4.7-1.5 1.3-2.2 1.3-2.1 0-1.9-2.8.3-3.3.9-.2-.5-.4-3.3-.4-7.1 0-8.7 1-7.9 5.1.5 3.1.4 3.3-2 3.3-2.3 0-2.4-.1-1-1.2 1.1-.8 1.3-1.4.6-1.8-.5-.4-.8-1.7-.4-2.9.4-1.6.2-2-1-1.5-.9.3-4.5 1.1-7.9 1.8-3.5.7-6.9 1.9-7.4 2.7-1.4 1.7-7.7 1.2-8.3-.7-.4-1.1.3-1.2 3.2-.7 2 .4 3.6.3 3.6-.2 0-1.3-4.2-4-7.6-4.8-2.4-.5-2.7-.4-1.6.7 1.5 1.6 1.6 2.9.2 2.9-.5 0-1-.7-1-1.6 0-.9-.6-1.4-1.2-1.1-1.9.6-1.7 8 .2 8.9.8.4-.6.7-3.2.7l-4.7.1-.3 15.2c-.2 8.4 0 15.7.5 16.2.4.6.7 3.5.7 6.5l-.1 5.6-3.7-4.5c-11.4-13.7-15.5-17.5-22.1-20.1-3.6-1.5-11.5-4.8-17.6-7.3-6-2.6-13-5.4-15.5-6.3-2.5-.8-6.3-2.4-8.5-3.6-2.2-1.1-6.7-3-10-4.2-7.5-2.9-19.3-7.8-26.7-11.2-5.4-2.5-6.1-2.6-11.2-1.4-8.3 1.9-20.6 7.3-26.9 12-3.1 2.3-8.9 7.3-12.9 11.1-4 3.9-7.3 7-7.3 7-.1 0-.1-3.7 0-8.2v-8.2l4.3-4c6-5.5 13.7-11.2 17.3-12.7 2.8-1.1 3.1-1.5 2.5-4.8l-.6-3.6 2.3 2.9c2 2.5 2.6 2.7 4.5 1.7 1.2-.6 2.2-1.4 2.2-1.7 0-.8-9-4.4-11.1-4.4-1 0-1.9-.4-1.9-.8 0-1.2-7.1-3.3-8.4-2.5-.6.3-.7.2-.3-.2.4-.5-1.8-2.1-5-3.6l-5.7-2.7.2-26.2c.1-14.5.3-26.4.5-26.6.4-.4 8.8 3 17.2 7 11.7 5.6 20.4 9.6 21 9.6.4 0 3.4 1.3 6.8 2.9 3.4 1.6 11.8 5.5 18.7 8.6 6.9 3 14.8 6.6 17.5 7.9 2.8 1.4 9.3 4.3 14.5 6.6 5.2 2.3 11.8 5.2 14.5 6.5 2.8 1.3 11.6 5.3 19.6 8.9 8 3.6 15.9 7.2 17.5 8 1.6.7 4.6 2.1 6.7 3l3.7 1.6v-22.1l-6.2-2.8c-3.5-1.6-10.6-4.9-15.8-7.4-5.2-2.5-13.4-6.3-18.2-8.6-4.9-2.3-12.5-5.8-17-8-4.6-2.1-27.4-12.9-50.8-23.8-23.4-11-44.3-20.9-46.5-21.9l-4-1.9v-18.8c0-10.3.3-18.7.6-18.7s23.1 11.2 50.5 24.8c27.4 13.7 62.1 30.9 76.9 38.2 14.9 7.3 27.3 13.5 27.8 13.7.4.2.7-1 .7-2.6 0-2.4-.4-3.1-2-3.1-2.2 0-2.7-1.6-.8-2.2.7-.3.6-.7-.5-1.1-1.3-.5-1.7-.1-1.7 1.4 0 2.8-2.3 1.9-3-1.2-.4-1.4-2.2-3.3-4.5-4.6-4.9-2.8-5.5-2.8-5.5-.3 0 1.1-.4 2-.8 2-1.4 0-3.2-2.3-3.2-4.1 0-1-.5-2.1-1.1-2.5-.8-.4-.9.1-.4 1.7.7 2.1.6 2.2-.9 1-.9-.7-1.6-2.2-1.6-3.3 0-1.4-.5-1.8-1.5-1.4-.8.3-1.9-.3-2.5-1.2-1-1.5-1-1.5-.7.3.1 1.2 1 1.9 2 1.9.9-.1 1.7.5 1.7 1.3s-.6 1.2-1.2.9c-.7-.3-2.1-.9-3-1.2-.9-.3-1.8-1.8-2-3.2-.3-2.8-2.8-4.4-2.8-1.8 0 1.8-.8 2-2.8.8-.7-.5-1-1.6-.7-2.5.5-1.1-.3-2.1-2.4-3.2-1.7-.8-3.1-1.2-3.1-.8 0 .5-.4.3-.8-.3s-4.1-2.8-8.2-4.7c-4.1-2-8.2-4.1-9-4.6-.8-.6-18.6-9.5-39.5-19.9-33-16.4-38.5-18.8-41.7-18.4-3.2.3-3.7.1-4-1.9-.3-2.6-2.8-3.9-2.8-1.5 0 .9-.6 1.6-1.3 1.6-2 0-3.7-2.2-3.7-4.7 0-1.3-.3-2.3-.7-2.2-.5 0-23.1 11.3-50.3 25zm193 48.4c0 .8-.2 1.5-.4 1.5s-.6-.7-1-1.5c-.3-.8-.1-1.5.4-1.5.6 0 1 .7 1 1.5zm4.7 3c0 .8-.4 1.5-.9 1.5-.4 0-.8-.7-.8-1.5s.4-1.5.8-1.5c.5 0 .9.7.9 1.5zM90.4 198.8c.2.4.1 1.4-.4 2.2-.7 1.1-1.2 1.2-2.1.3-.6-.6-.8-1.6-.5-2.2.8-1.3 2.3-1.4 3-.3zm10.6 4.9c0 2.7-.3 3.4-.9 2.4-.8-1.2-1.2-1.3-2.5-.1-2.7 2.2-2.6.6.2-2.8 1.4-1.7 2.7-3.2 2.9-3.2.2 0 .3 1.7.3 3.7zM87.5 212c-.3.5-1.2.7-2 .3-2.1-.7-1.9-1.3.6-1.3 1.1 0 1.8.4 1.4 1zm3 .9c.3.5.1 1.2-.5 1.6-.5.3-1-.1-1-.9 0-1.8.6-2.1 1.5-.7zm9.5 2.1c0 .5-.2 1-.4 1-.3 0-.8-.5-1.1-1-.3-.6-.1-1 .4-1 .6 0 1.1.4 1.1 1zm172 8c0 .5-.7.7-1.5.4-.8-.4-1.5-.8-1.5-1 0-.2.7-.4 1.5-.4s1.5.4 1.5 1zm-6.6 8.1c-1.2 2-3.4.8-3.4-1.8 0-2.5.1-2.6 2-.8 1.1 1 1.7 2.2 1.4 2.6zm-168.1-1.7c1.6 1.2 1.6 1.4.1 2-2.5 1-3 .7-3.1-1.4-.2-2.3.5-2.5 3-.6zm163.2 4.3c-1 4-1.7 2-.9-2.3.5-2.4.9-3.2 1.2-2.1.2 1 .1 3-.3 4.4zM80 230c0 .5-.9 1-2 1s-2-.5-2-1c0-.6.9-1 2-1s2 .4 2 1zm-2.2 4.5c-.2 1.4-.7 2.6-1.3 2.6-.5 0-1.1-1.2-1.3-2.6-.2-1.8.1-2.5 1.3-2.5s1.5.7 1.3 2.5zm187.2.9c0 .2-.7.7-1.6 1-.8.3-1.2.2-.9-.4.6-1 2.5-1.4 2.5-.6zm-168.5 5.7c1 1.5-.1 2.3-2 1.5-.9-.3-1.3-1-1-1.6.8-1.3 2.2-1.3 3 .1zm389 1.9c-.3.5-2.4 1-4.6 1-5 0-5.1 1.7-.1 2.3 2.4.3 2 .3-1.1.2-5.5-.2-6.5-.9-4.7-3 1.4-1.7 11.6-2.2 10.5-.5zm-31.8 1.6c-1.6.9-3.5 1.3-4.3 1-2.6-1-.4-2.6 3.4-2.6l3.7.1-2.8 1.5zm14.9 1.1c-1 1-1.9-.5-1-1.8.6-1.1.8-1.1 1.2 0 .2.7.1 1.5-.2 1.8zm5.4 1.9c0 .2-.9.4-2.1.4-1.1 0-1.8-.4-1.4-1 .5-.8 3.5-.3 3.5.6zm-28.7.1c-.7.2-1.9.2-2.5 0-.7-.3-.2-.5 1.2-.5s1.9.2 1.3.5zm-7.8 5.2c-.8.7-15.5.7-15.5 0 0-.4 3.6-.6 8-.6 4.4.1 7.7.3 7.5.6zM371 299.5c0 1.5-.5 2.2-1.5 2.1-1.9-.3-3.2-1.6-1.6-1.6.8 0 1.1-.8.8-1.9-.3-1.4-.1-1.8.9-1.4.8.3 1.4 1.6 1.4 2.8zm-6.3-.3c-.3.8-.6.5-.6-.6-.1-1.1.2-1.7.5-1.3.3.3.4 1.2.1 1.9zm10.9 7.4c-.4 1.9-1.1 3.4-1.6 3.4-1.3 0-1.3-1.7 0-2.5.6-.4.8-2.2.5-4.3-.5-3.1-.4-3.4.5-1.9.7 1.1.9 3.3.6 5.3zM299.5 334c3.3 1 13.4 4.4 22.5 7.5 20.9 7.1 25 8.4 25 7.9 0-.3 1.2.2 2.8 1 5 2.6 28.2 9.9 28.2 8.8 0-.3-.8-1.1-1.7-1.8-1.7-1.2-1.7-1.3-.1-1.4.9 0 2 .5 2.4 1.1.3.6 1.4.9 2.5.6 1.3-.3 2 .3 2.7 2.2 1.1 3 3.9 4.2 24.4 10.7 5.9 1.8 12 4 13.5 4.7l2.7 1.5-6.9 2c-3.9 1.1-13.3 3.7-21 5.8-28.9 7.7-35 9.1-35.7 8-.4-.5-.4-1.4-.2-1.8.3-.4-.8-.8-2.3-.8-3.6 0-4.5 3.7-1 4.2 1.3.2-1 1.1-5.3 2.2-4.1 1-11.5 3-16.5 4.4-4.9 1.4-10 2.5-11.3 2.4-1.3-.1-2.1.2-1.8.7 1.3 2-6.8 2-19 0-7.1-1.1-16.7-2.7-21.4-3.4-10.2-1.6-29.9-3.4-43.1-3.8-8.2-.2-9.4-.1-8.3 1.1 4.1 4.1-3.8 2.4-16.1-3.4-6.5-3.1-6.6-4.4-.3-1.9 2.8 1 6.5 1.5 10.3 1.3l6-.3-7.7-2.8c-5.9-2.2-8.7-2.7-11.7-2.2-2.5.4-4.1.2-4.6-.5-.4-.6-.5-1.3-.3-1.5.2-.2 16.9-1.1 37.2-1.9 35.5-1.6 42.2-2.4 38.4-4.7-.9-.6-.8-1.3.6-2.8 2.9-3.2-.4-2.8-3.4.4-1.6 1.7-3.4 2.5-5.8 2.5h-3.5l2.4-2.6 2.4-2.6-6.5.7c-4.8.5-7.2 1.3-9.1 3.1-1.6 1.5-3.7 2.4-5.8 2.4h-3.3l2.3-1.9c1.3-1.1 2.1-2.3 1.6-2.7-.4-.4-2.2.7-4 2.4-2.2 2.1-4.3 3.2-6.2 3.2h-2.9l2.9-3c1.7-1.8 3.9-3 5.4-3 4.7 0 .7-1.9-5.9-2.9-3.6-.5-9.2-1.7-12.5-2.7-3.3-1-6.3-1.9-6.7-2-.5-.1-.9-.3-1-.4-.2-.1-1.2-.4-2.3-.6-5.5-.9-12.3-2.6-18.3-4.4-7.2-2.3-8.8-2.1-27.5 3.2-3.7 1-10.5 2.4-15 2.9-4.5.6-10.2 1.7-12.7 2.4-4.8 1.5-41.1 2.2-39.7.8.7-.7 3.2-1.5 34.7-12.1 8.5-2.9 17.5-6 20-6.9 2.5-.9 8.3-2.9 13-4.6l8.5-3 22 .2c12 .1 22.3.5 22.7.7.4.3.8.1.8-.4 0-1.7-4.2-2.2-19.2-2.2-8.1 0-14.9-.4-15.2-.9-.3-.5 14.1-5.8 32.2-11.8l32.7-11 17 6c9.4 3.2 19.7 6.7 23 7.7zm67.5-13.1c0 .5-.7 1.2-1.6 1.5-1.4.5-1.5.4-.4-.9 1.4-1.7 2-1.9 2-.6zm-48 13.5c-1.4 1.4-2.4 0-1.6-2.1.6-1.5.8-1.5 1.6-.3.6.9.5 1.9 0 2.4zm41.7 15.2c-.6.6-9.7-2.7-9.7-3.5 0-.4.5-1.2 1.2-1.9.8-.8 2.1-.4 5 2 2.1 1.7 3.7 3.2 3.5 3.4zm53.9.5c.3.6-.2 1.8-1.1 2.7-1.7 1.6-1.7 1.6-1.2-.1.4-1.1.3-1.6-.3-1.2-.6.4-1 1.2-.9 1.8.5 4.4-2.7 6.5-7.2 4.5-2.5-1.1-2.9-1.8-2.7-4.2.2-2.4.8-2.9 3.2-3.2 1.5-.2 3.1-.5 3.4-.8 1-1 6.1-.6 6.8.5zm-174.9 26.5c-.3.3-1.2.4-1.9.1-.8-.3-.5-.6.6-.6 1.1-.1 1.7.2 1.3.5zm9.5 24.5c-.1 1.1.6 1.6 2.5 1.7 1.6 0 7.1.8 12.3 1.6 11.9 2 18.4 2.1 9.8.2-1.6-.4-2.8-1-2.8-1.5s1.7-.5 3.8.1c2 .5 5.9 1.1 8.5 1.4 2.6.3 6.8.8 9.2 1.3 2.4.4 7.9.6 12.2.4 11.4-.6 7.3 1.1-17.2 7.1-3.3.8-9.8 2.6-14.4 4-11.6 3.5-13.6 3.4-14.7-.7-.7-2.2-1.7-3.3-3.2-3.5-2.1-.3-2.3-.1-1.7 3.2l.7 3.5-3.3-.9c-1.9-.6-6.8-2-10.9-3.1-10.1-2.8-10.4-3.2-4-4.5 3-.7 4.5-1.2 3.3-1.3-1.3 0-2.2-.4-2.1-.9.1-.4-.4-1.8-1.1-3.2-1-1.7-1.1-2.5-.3-2.8.7-.2 2.2-1.2 3.4-2.3 2.9-2.4 10.4-2.3 10 .2zm18.3 2.1c.7.7.2.8-1.5.3-1.4-.4-2.9-1.2-3.5-1.7-.7-.7-.2-.8 1.5-.3 1.4.4 3 1.2 3.5 1.7zm-38.2 9.5c-.7.2-1.9.2-2.5 0-.7-.3-.2-.5 1.2-.5s1.9.2 1.3.5z"/><path d="M165.3 359.7c.9.2 2.3.2 3 0 .6-.3-.1-.5-1.8-.5-1.6 0-2.2.2-1.2.5zM175.8 359.7c2.9.2 7.4.2 10 0 2.6-.2.2-.3-5.3-.3s-7.6.1-4.7.3zM153.3 366.7c1.5.2 3.9.2 5.5 0 1.5-.2.2-.4-2.8-.4s-4.3.2-2.7.4zM314 374.4c0 1.6 3.4 3.1 5 2.1 2.2-1.4 1-3.5-2-3.5-1.9 0-3 .5-3 1.4zM290.2 376.9c-1 .6-1 1 .3 2.1 1.8 1.5 4.2 0 3.1-1.9-.8-1.3-1.6-1.4-3.4-.2zM342.7 377.6c-.8.9.3 3.4 1.6 3.4.6 0 .7-.3.4-.7-.4-.3-.2-1.2.4-2 .9-1 .8-1.3-.3-1.3-.8 0-1.7.3-2.1.6zM344 386c0 .5.7.7 1.5.4.8-.4 1.5-.8 1.5-1 0-.2-.7-.4-1.5-.4s-1.5.4-1.5 1zM242.5 388c2.7 1.2 4.3 1.2 2.5 0-.8-.5-2.2-.9-3-.9-1 0-.8.3.5.9zM264 396c2 1.3 4.3 1.3 3.5 0-.3-.6-1.6-1-2.8-1-1.8 0-1.9.2-.7 1zM296.8 400.7c.7.3 1.6.2 1.9-.1.4-.3-.2-.6-1.3-.5-1.1 0-1.4.3-.6.6zM301.8 400.7c.7.3 1.6.2 1.9-.1.4-.3-.2-.6-1.3-.5-1.1 0-1.4.3-.6.6zM308.3 401.7c.9.2 2.3.2 3 0 .6-.3-.1-.5-1.8-.5-1.6 0-2.2.2-1.2.5zM315.8 402.7c.7.3 1.6.2 1.9-.1.4-.3-.2-.6-1.3-.5-1.1 0-1.4.3-.6.6zM244.6 403.9c-1.3 2 5.8 2.8 8.4 1 1.1-.8.6-.9-2.2-.7-2 .2-3.4 0-3.2-.4.3-.4-.2-.8-1-.8s-1.7.4-2 .9zM240 406.5c-.7.8-.8 1.5-.2 1.5.5 0 1.5-.7 2.2-1.5.7-.8.8-1.5.2-1.5-.5 0-1.5.7-2.2 1.5zM54 96c0 2.2.7 2.5 2.9 1.1 1.1-.7.9-1.1-.8-2-1.8-1-2.1-.9-2.1.9zM63.7 95.4c-1.5 3.8-.8 5.6 2.1 5.6 1.5 0 3.4-.5 4.2-1 1.3-.8 1.3-1 0-1-.8 0-2.4-1.2-3.5-2.7-1.9-2.3-2.2-2.4-2.8-.9zM45 101.9c0 1.5-7.5 2.9-12.9 2.3-4.1-.4-5.2-.1-5.7 1.2-.4 1.1-1.8 1.6-4.5 1.6-2.3 0-4.1.6-4.6 1.5-.6 1-2.8 1.5-7 1.7-5.5.2-6.4-.1-8.2-2.2l-2-2.5-.1 6.7v6.6l5 1.7c6.4 2.1 11.4 1.7 11.9-1 .2-1.1 2.1-3.7 4.3-5.9 2.9-3 4.2-3.6 5-2.8.7.7 1.6 1.2 2.2 1.2.6 0 .5-.5-.2-1.2s-1.2-1.6-1.2-2c0-1.4 7.3-.8 9.1.8 2.7 2.4 34.3 6.3 36.3 4.4.5-.5 1.9-.5 3.2 0 1.3.5 3.9.9 5.7.8 1.8-.1 4.2.4 5.4 1 1.2.7 4.7 1.2 7.7 1.2 3.1 0 5.6.4 5.6 1 0 .5.7 1 1.5 1 1.1 0 1.5-1.2 1.5-4.5 0-3.6-.3-4.5-1.7-4.5-1.1-.1-.7-.6 1.2-1.4 2.7-1.2 2.8-1.4 1-2.1-1.1-.3-2.7-1-3.6-1.5-1.2-.6-2.4-.1-4.5 2.1-2.5 2.6-2.9 2.7-4.5 1.3-1.1-1-3.4-1.5-6.5-1.3-5.3.1-17.7-1.6-20.9-3-6.3-2.8-18.5-4.2-18.5-2.2zM331.9 149.7c.2 2.7.6 4.1 1 3.3 1-2.4 3.5-1.7 4.8 1.2.8 1.8 3 3.5 6.8 5.2 3 1.4 5.7 2.6 5.8 2.6.1 0 .3-1.6.4-3.5.1-2.5-.3-3.5-1.3-3.5-.8 0-1.2.4-.9 1 1.1 1.7-.9 4-2.5 3-1.2-.8-1.3-1.3-.3-2.9 1.1-1.7 1-2.2-.6-3.1-1.6-.8-1.8-.7-1.4.9.3 1 0 2.2-.6 2.5-.7.5-1.1-.3-1.2-2.1-.1-1.7-.3-2.1-.6-1.1-.6 2.5-2.3 2.2-2.3-.3 0-1.1-.6-2.7-1.2-3.4-.7-.8-1.9-2.1-2.6-3-2.5-2.9-3.7-1.8-3.3 3.2zm3.1-1.1c0 .8-.4 1.2-1 .9-.5-.3-1-1-1-1.6 0-.5.5-.9 1-.9.6 0 1 .7 1 1.6zM352 158.5c0 3.7.3 4.6 1.4 4.2.9-.4 1.7.2 2.1 1.4.4 1 1.1 1.9 1.6 1.9 1.3 0 1.1-1.8-.3-2.3-.8-.3-.6-.6.5-.6.9-.1 1.7-.5 1.7-1 0-1.5-3.1-4.2-4.1-3.6-.5.4-.9-.3-.9-1.4 0-1.1-.4-2.3-1-2.6-.6-.4-1 1.2-1 4zM278.3 182.7c-2.5.9-.9 13.3 1.6 13.3.5 0 2.2.5 3.8 1.2 1.5.6 3.1 1.2 3.5 1.2.4.1 1.3.7 2 1.3 1.8 1.9 4.8 1.6 4.9-.5 0-1.1.4-.7 1.1 1 1 2.8 3.8 3.9 3.8 1.5 0-.6.6-.1 1.3 1.3.8 1.6 2.3 2.6 4 2.8 1.5.2 2.7.7 2.7 1.2 0 1.1 6.9 3.4 7.7 2.6.4-.3-.3-1.5-1.5-2.6-2.7-2.6-2.8-3.3-.2-2.5 3.7 1.2 2.2-2.2-2-4.4-2.2-1.1-4-1.8-4-1.4 0 .3-.8-.1-1.7-.9-1-.9-3.2-1.9-5-2.3-1.7-.3-3.7-1.3-4.3-2.1-.7-.7-1.6-1.2-2-.9-.5.3-1.1.1-1.5-.5-.3-.5-1.5-1-2.6-1-1.2 0-1.9-.7-1.9-2 0-2.9-3-3.8-4.6-1.5-1.4 1.8-1.4 1.8-1.4-.1-.1-2.5-2.2-5.2-3.7-4.7zM96 185c0 .5.5 1 1.1 1 .5 0 .7-.5.4-1-.3-.6-.8-1-1.1-1-.2 0-.4.4-.4 1zM318 203.2c0 .8.4 1.8.9 2.3.5.6 1.1 2.5 1.3 4.4.2 1.9.9 3.6 1.6 3.9 1 .3 1.2-1 1-5.4-.3-5.2-.6-5.9-2.5-6.2-1.4-.2-2.3.2-2.3 1zM327 207.2c0 .8.4 1.8.9 2.3.5.6 1.1 2.5 1.3 4.4.2 1.9.9 3.6 1.6 3.9 1 .3 1.2-1 1-5.4-.3-5.2-.6-5.9-2.5-6.2-1.4-.2-2.3.2-2.3 1zM334.4 207.8c-1.6 1.1-1.2 10.3.6 11.2.8.4 3.4 1.8 5.8 3 4.2 2.1 6.7 2.1 4.5-.1-.7-.7-.9-2.6-.6-4.5.6-3.8-2-7.9-4.5-6.9-.7.3-2.1-.4-3-1.5-1-1.1-2.2-1.7-2.8-1.2zm7.6 7.7c0 .1-.7.8-1.5 1.5-1.3 1-1.5.9-1.5-.8 0-1.5.5-2 1.5-1.6.8.4 1.5.7 1.5.9zM69 210c0 .5.4 1 .9 1 .6 0 1.3-.5 1.6-1 .3-.6-.1-1-.9-1-.9 0-1.6.4-1.6 1zM.5 213c.3.5 1 1 1.6 1 .5 0 .9-.5.9-1 0-.6-.7-1-1.6-1-.8 0-1.2.4-.9 1zM68.5 213c-.3.5-.1 1 .4 1 .6 0 1.1-.5 1.1-1 0-.6-.2-1-.4-1-.3 0-.8.4-1.1 1zM324.4 213.3c-.3.9-.3 2.5.1 3.4.6 1.6.8 1.6 1.8-.5.7-1.6.7-2.6-.1-3.4-.8-.8-1.3-.7-1.8.5zM355 217.9c0 .5.7 2.2 1.5 3.7.8 1.6 1.5 4.1 1.5 5.6 0 1.6.6 2.8 1.3 2.8.9 0 1.2-1.1.9-3.5-.3-2.1 0-3.5.7-3.5.6 0 1.1 1.7 1.1 4 0 2.9.5 4.2 2 5 1.1.6 2.5.8 3 .5.6-.3 1-.2 1 .3 0 .9 3.1 2.3 5.5 2.6.6.1 1.4.7 1.8 1.3.4.7 1.6 1.3 2.5 1.3 1 0 2.3.5 3 1.2.9.9 1.2.8 1.2-.5 0-1-.7-2-1.5-2.3-.8-.4-1.5-1-1.5-1.5s.7-.9 1.5-.9 1.5-.6 1.5-1.4c0-1.8-5.6-4.7-7.6-3.9-.7.3-1.4 0-1.4-.6 0-.7-1.3-1.7-3-2.2-1.6-.6-3-1.5-3-2 0-.4-.7-.6-1.5-.3-1.1.5-1.3.2-.9-.9s-.6-2.2-3.5-3.6c-4.4-2.3-6.1-2.6-6.1-1.2zM384.8 231.5c-.3.4 0 1.8.8 3.3.8 1.5 1.4 3.7 1.4 4.9 0 1.2.5 2.5 1.1 2.8.7.5.9-1.3.7-5.1-.2-4.4-.7-6-1.8-6.2-.9-.1-1.9 0-2.2.3zM390.4 234.5c-.4.8-.3 2.7.2 4.3.4 1.5.6 3.3.5 3.9-.1.7.4 1.4 1.1 1.4.7.1 1.9.2 2.6.3.7 0 1.7.8 2.2 1.6.5.8 1.2 1.1 1.6.8 1-1.1-.4-4-1.6-3.3-.5.3-1-.3-1-1.4 0-3.4 4.4-1.1 4.8 2.5.7 5.6 2.2 4.9 2.2-1 0-5.3-.2-5.7-2.2-5.6-3.9.3-4.4.1-5.6-2.5-1.3-2.8-3.9-3.3-4.8-1zM420.3 235.7c-.1 1.5.8 1.9 4.8 2.1 5.4.3 6.8-1.3 1.7-2-1.8-.3-4-.8-4.8-1.2-1.1-.4-1.6-.1-1.7 1.1zM404.4 240.5c-.7 1.7.4 3.7 1.7 3 .5-.4.9-.2.9.4 0 .5-.4 1.3-1 1.6-2.5 1.5-.4 5.5 2.9 5.5 1 0 .7-7.8-.4-10.3-.9-2.1-3.4-2.2-4.1-.2z"/></svg>